<?xml version="1.0" encoding="utf-8"?>
<!-- Generator: Adobe Illustrator 21.0.0, SVG Export Plug-In . SVG Version: 6.00 Build 0)  -->
<svg version="1.2" baseProfile="tiny" id="Layer_1" xmlns="http://www.w3.org/2000/svg" xmlns:xlink="http://www.w3.org/1999/xlink"
	 x="0px" y="0px" viewBox="0 0 224 60" xml:space="preserve">
<g>
	<g>
		<path fill="#55BF98" d="M39.6,6.1c0-1.1-0.1-2.2-0.2-3.2c-3.2-1.2-6.7-1.9-10.3-1.9S22,1.6,18.8,2.8c-0.2,1.1-0.2,2.1-0.2,3.2
			c0,8,4.2,15,10.5,19C35.4,21.1,39.6,14,39.6,6.1z"/>
		<g>
			<path fill="#0090BE" d="M1.2,21.8c1.9,2,4.2,3.6,6.7,4.7C6.7,23,6.1,19.3,6.1,15.4c0-1.1,0.1-2.3,0.2-3.4
				C4,14.9,2.2,18.2,1.2,21.8z"/>
			<path fill="#0090BE" d="M57,21.8c-1.1-3.6-2.8-6.9-5.1-9.8c0.1,1.1,0.2,2.2,0.2,3.4c0,3.9-0.7,7.6-1.8,11.1
				C52.7,25.4,55,23.8,57,21.8z"/>
			<path fill="#0090BE" d="M24.8,46.2c-6.7-3.5-12.1-9.1-15.4-15.9c-3.4-1.1-6.4-2.8-9.1-5.1C0.1,26.8,0,28.4,0,30
				c0,5.1,1.3,9.9,3.6,14c4.2,2,8.8,3.1,13.7,3.1C19.9,47.1,22.4,46.8,24.8,46.2z"/>
			<path fill="#0090BE" d="M54.5,44c2.3-4.2,3.6-8.9,3.6-14c0-1.6-0.1-3.2-0.4-4.8c-2.6,2.3-5.7,4-9.1,5.1
				c-3.3,6.8-8.7,12.4-15.4,15.9c2.4,0.6,4.9,0.9,7.5,0.9C45.7,47.1,50.4,46,54.5,44z"/>
			<path fill="#0090BE" d="M40.8,50.1c-4.1,0-8.1-0.7-11.7-2c-3.7,1.3-7.6,2-11.7,2c-3.7,0-7.4-0.6-10.7-1.7
				c5.3,6.5,13.4,10.6,22.5,10.6s17.1-4.1,22.5-10.6C48.2,49.5,44.6,50.1,40.8,50.1z"/>
		</g>
		<g>
			<path fill="#32C0CF" d="M17.1,28.5c3.2,0,6.2-0.7,8.9-1.9C19.7,22,15.5,14.5,15.5,6.1c0-0.6,0-1.2,0.1-1.8
				c-2.1,1.1-4,2.4-5.7,3.9c-0.5,2.3-0.8,4.8-0.8,7.3c0,4.4,0.9,8.6,2.5,12.4C13.4,28.3,15.2,28.5,17.1,28.5z"/>
			<path fill="#32C0CF" d="M42.6,6.1c0,8.5-4.2,16-10.5,20.6c2.7,1.2,5.8,1.9,8.9,1.9c1.9,0,3.8-0.2,5.5-0.7c1.6-3.8,2.5-8,2.5-12.4
				c0-2.5-0.3-4.9-0.8-7.3c-1.7-1.5-3.6-2.8-5.7-3.9C42.6,4.8,42.6,5.4,42.6,6.1z"/>
			<path fill="#32C0CF" d="M44.8,31.2c-1.2,0.2-2.5,0.3-3.8,0.3c-4.3,0-8.4-1.1-11.9-3c-3.6,1.9-7.6,3-11.9,3
				c-1.3,0-2.6-0.1-3.8-0.3c3.5,6.1,9.1,11,15.7,13.7C35.7,42.2,41.3,37.4,44.8,31.2z"/>
		</g>
	</g>
	<g>
		<path fill="#515155" d="M87.5,18.1c-1.6-1.1-3.5-1.6-5.4-1.6c-2,0-3.5,0.6-4.7,1.8c-1.1,1.2-1.7,2.8-1.7,4.7s0.6,3.5,1.7,4.7
			c1.1,1.2,2.7,1.8,4.7,1.8c2,0,3.8-0.5,5.4-1.6h0.1V30c-1.7,1-3.6,1.6-5.7,1.6c-2.4,0-4.5-0.8-6-2.3c-1.6-1.6-2.4-3.7-2.4-6.3
			c0-2.6,0.8-4.7,2.4-6.3c1.6-1.6,3.6-2.3,6-2.3c2.1,0,4,0.5,5.7,1.6v2.2H87.5z"/>
		<path fill="#515155" d="M90.1,25.2c0-1.9,0.6-3.4,1.7-4.6c1.1-1.2,2.6-1.8,4.4-1.8c1.8,0,3.3,0.6,4.5,1.8c1.1,1.2,1.7,2.7,1.7,4.6
			c0,1.9-0.6,3.4-1.7,4.6c-1.1,1.2-2.6,1.8-4.5,1.8c-1.8,0-3.3-0.6-4.4-1.8C90.7,28.7,90.1,27.2,90.1,25.2z M93.5,28.5
			c0.8,0.7,1.7,1.1,2.8,1.1c1.1,0,2-0.4,2.8-1.1c0.8-0.7,1.2-1.8,1.2-3.3s-0.4-2.6-1.2-3.3c-0.8-0.7-1.7-1.1-2.8-1.1
			c-1.1,0-2,0.4-2.8,1.1c-0.8,0.7-1.2,1.8-1.2,3.3S92.7,27.8,93.5,28.5z"/>
		<path fill="#515155" d="M112.1,18.9c1.3,0,2.4,0.4,3.1,1.3c0.8,0.9,1.2,2,1.2,3.4v7.8h-2.2v-7.5c0-2-0.9-2.9-2.6-2.9
			c-1.4,0-2.7,0.8-3.9,2.3v8.2h-2.2V19.1h1.9l0.3,1.5V21h0C109,19.6,110.5,18.9,112.1,18.9z"/>
		<path fill="#515155" d="M126.5,21h-3.5v7.2c0,0.7,0.2,1.1,0.6,1.2c0.3,0.1,0.7,0.2,1.2,0.2c0.5,0,1-0.1,1.6-0.4h0.2v1.8
			c-0.7,0.4-1.4,0.5-2.2,0.5c-2.3,0-3.5-1.1-3.5-3.2V21h-2.3v-0.1l4.5-4.4v2.6h3.5V21z"/>
		<path fill="#515155" d="M140,25.2V26h-9.3c0.1,1.1,0.5,2,1.2,2.6s1.8,0.9,3.2,0.9c1.4,0,2.8-0.4,4-1.2h0.1v2.1
			c-1.3,0.8-2.9,1.1-4.7,1.1c-1.8,0-3.3-0.6-4.4-1.7c-1.1-1.1-1.6-2.6-1.6-4.5c0-1.9,0.5-3.5,1.5-4.7c1-1.2,2.4-1.8,4.3-1.8
			c1.9,0,3.3,0.6,4.3,1.8C139.5,22,140,23.5,140,25.2z M130.8,24.2h7.1c-0.1-1.2-0.5-2-1.2-2.6c-0.7-0.6-1.5-0.9-2.4-0.9
			c-0.9,0-1.7,0.3-2.4,0.9C131.2,22.2,130.8,23.1,130.8,24.2z"/>
		<path fill="#515155" d="M149.6,18.9c1.3,0,2.4,0.4,3.1,1.3c0.8,0.9,1.2,2,1.2,3.4v7.8h-2.2v-7.5c0-2-0.9-2.9-2.6-2.9
			c-1.4,0-2.7,0.8-3.9,2.3v8.2H143V19.1h1.9l0.3,1.5V21h0C146.5,19.6,148,18.9,149.6,18.9z"/>
		<path fill="#515155" d="M164,21h-3.5v7.2c0,0.7,0.2,1.1,0.6,1.2c0.3,0.1,0.7,0.2,1.2,0.2c0.5,0,1-0.1,1.6-0.4h0.2v1.8
			c-0.7,0.4-1.4,0.5-2.2,0.5c-2.3,0-3.5-1.1-3.5-3.2V21h-2.3v-0.1l4.5-4.4v2.6h3.5V21z"/>
		<path fill="#515155" d="M181.1,18.9c1.3,0,2.3,0.5,3,1.4c0.7,0.9,1,2,1,3.2v7.9H183v-7.4c0-1-0.2-1.8-0.6-2.3
			c-0.4-0.5-1-0.7-1.9-0.7c-1.4,0-2.5,0.8-3.5,2.3v8.2h-2.2v-7.4c0-1-0.2-1.8-0.6-2.3c-0.4-0.5-1-0.7-1.9-0.7
			c-1.4,0-2.5,0.8-3.5,2.3v8.2h-2.2V19.1h1.9l0.3,1.5V21h0c1-1.4,2.4-2.1,4-2.1c0.9,0,1.7,0.2,2.3,0.7c0.6,0.5,1.1,1,1.4,1.7h0.1
			C177.7,19.7,179.2,18.9,181.1,18.9z"/>
		<path fill="#515155" d="M199.6,25.2V26h-9.3c0.1,1.1,0.5,2,1.2,2.6s1.8,0.9,3.2,0.9c1.4,0,2.8-0.4,4-1.2h0.1v2.1
			c-1.3,0.8-2.9,1.1-4.7,1.1c-1.8,0-3.3-0.6-4.4-1.7c-1.1-1.1-1.6-2.6-1.6-4.5c0-1.9,0.5-3.5,1.5-4.7c1-1.2,2.4-1.8,4.3-1.8
			s3.3,0.6,4.3,1.8C199.1,22,199.6,23.5,199.6,25.2z M190.3,24.2h7.1c-0.1-1.2-0.5-2-1.2-2.6c-0.7-0.6-1.5-0.9-2.4-0.9
			c-0.9,0-1.7,0.3-2.4,0.9C190.8,22.2,190.4,23.1,190.3,24.2z"/>
		<path fill="#515155" d="M209.2,18.9c1.3,0,2.4,0.4,3.1,1.3c0.8,0.9,1.2,2,1.2,3.4v7.8h-2.2v-7.5c0-2-0.9-2.9-2.6-2.9
			c-1.4,0-2.7,0.8-3.9,2.3v8.2h-2.2V19.1h1.9l0.3,1.5V21h0C206,19.6,207.5,18.9,209.2,18.9z"/>
		<path fill="#515155" d="M223.6,21h-3.5v7.2c0,0.7,0.2,1.1,0.6,1.2c0.3,0.1,0.7,0.2,1.2,0.2c0.5,0,1-0.1,1.6-0.4h0.2v1.8
			c-0.7,0.4-1.4,0.5-2.2,0.5c-2.3,0-3.5-1.1-3.5-3.2V21h-2.3v-0.1l4.5-4.4v2.6h3.5V21z"/>
		<path fill="#515155" d="M101.6,39.7h8.5v1.5h-6.9v4h6.2v1.5h-6.2v5.5h-1.6V39.7z"/>
		<path fill="#515155" d="M111.7,47.7c0-1.4,0.4-2.6,1.3-3.5c0.8-0.9,2-1.3,3.3-1.3c1.4,0,2.5,0.4,3.3,1.3c0.8,0.9,1.3,2,1.3,3.5
			c0,1.4-0.4,2.6-1.3,3.5c-0.8,0.9-2,1.3-3.3,1.3c-1.4,0-2.5-0.4-3.3-1.3C112.1,50.3,111.7,49.1,111.7,47.7z M114.2,50.1
			c0.6,0.5,1.3,0.8,2.1,0.8s1.5-0.3,2.1-0.8c0.6-0.5,0.9-1.4,0.9-2.5s-0.3-1.9-0.9-2.5c-0.6-0.5-1.3-0.8-2.1-0.8s-1.5,0.3-2.1,0.8
			c-0.6,0.5-0.9,1.4-0.9,2.5S113.6,49.6,114.2,50.1z"/>
		<path fill="#515155" d="M126.4,52.5c-1,0-1.8-0.3-2.4-1c-0.6-0.7-0.9-1.5-0.9-2.5v-5.8h1.6v5.6c0,1.5,0.7,2.2,2,2.2
			c1,0,2-0.6,3-1.7v-6.1h1.6v9.2h-1.4l-0.2-1.2v-0.3h0C128.7,51.9,127.6,52.5,126.4,52.5z"/>
		<path fill="#515155" d="M139.2,42.9c1,0,1.8,0.3,2.4,1c0.6,0.7,0.9,1.5,0.9,2.5v5.8h-1.6v-5.6c0-1.5-0.7-2.2-2-2.2
			c-1,0-2,0.6-3,1.7v6.1h-1.6v-9.2h1.4l0.2,1.2v0.3h0C136.8,43.5,137.9,42.9,139.2,42.9z"/>
		<path fill="#515155" d="M145.9,44.2c0.9-0.9,1.9-1.3,3-1.3s2.2,0.4,3,1.3h0.1v-5.1h1.6v13.1h-1.4l-0.2-1.2H152
			c-0.9,0.9-1.9,1.3-3,1.3s-2.2-0.4-3-1.3c-0.9-0.9-1.3-2-1.3-3.5C144.6,46.2,145,45.1,145.9,44.2z M149.2,50.9c1.1,0,2-0.5,2.8-1.3
			v-3.8c-0.8-0.9-1.8-1.4-2.8-1.4c-0.9,0-1.6,0.3-2.1,0.8c-0.5,0.6-0.8,1.4-0.8,2.4c0,1,0.3,1.8,0.8,2.4
			C147.6,50.6,148.3,50.9,149.2,50.9z"/>
		<path fill="#515155" d="M156.7,43.6c1-0.5,2.2-0.7,3.4-0.7c1.2,0,2.1,0.3,2.7,1c0.6,0.7,1,1.5,1,2.5v5.8h-1.4l-0.2-1.2H162
			c-0.9,0.9-2,1.3-3.3,1.3c-0.8,0-1.5-0.2-2.1-0.7c-0.6-0.5-0.9-1.2-0.9-2c0-0.9,0.4-1.5,1.1-2.1c0.7-0.5,1.7-0.8,3.1-0.8h2.2v-0.1
			c0-0.8-0.2-1.4-0.6-1.7c-0.4-0.3-1.1-0.5-2-0.5c-1,0-1.9,0.2-2.7,0.6h-0.1V43.6z M162.1,49.7v-1.5h-2c-1.8,0-2.7,0.5-2.7,1.4
			c0,1,0.6,1.4,1.9,1.4c0.5,0,1-0.1,1.5-0.4C161.3,50.4,161.7,50.1,162.1,49.7z"/>
		<path fill="#515155" d="M171.3,44.5h-2.6v5.4c0,0.5,0.1,0.8,0.4,0.9c0.2,0.1,0.5,0.1,0.9,0.1c0.4,0,0.8-0.1,1.2-0.3h0.1v1.3
			c-0.5,0.3-1,0.4-1.6,0.4c-1.8,0-2.6-0.8-2.6-2.4v-5.6h-1.7v-0.1l3.3-3.3v2h2.6V44.5z"/>
		<path fill="#515155" d="M175.2,39.4v1.8h-1.8v-1.8H175.2z M173.5,52.3v-9.2h1.6v9.2H173.5z"/>
		<path fill="#515155" d="M177.5,47.7c0-1.4,0.4-2.6,1.3-3.5c0.8-0.9,2-1.3,3.3-1.3c1.4,0,2.5,0.4,3.3,1.3c0.8,0.9,1.3,2,1.3,3.5
			c0,1.4-0.4,2.6-1.3,3.5c-0.8,0.9-2,1.3-3.3,1.3c-1.4,0-2.5-0.4-3.3-1.3C177.9,50.3,177.5,49.1,177.5,47.7z M180,50.1
			c0.6,0.5,1.3,0.8,2.1,0.8s1.5-0.3,2.1-0.8c0.6-0.5,0.9-1.4,0.9-2.5s-0.3-1.9-0.9-2.5s-1.3-0.8-2.1-0.8s-1.5,0.3-2.1,0.8
			c-0.6,0.5-0.9,1.4-0.9,2.5S179.4,49.6,180,50.1z"/>
		<path fill="#515155" d="M193.9,42.9c1,0,1.8,0.3,2.4,1c0.6,0.7,0.9,1.5,0.9,2.5v5.8h-1.6v-5.6c0-1.5-0.7-2.2-2-2.2
			c-1,0-2,0.6-3,1.7v6.1H189v-9.2h1.4l0.2,1.2v0.3h0C191.6,43.5,192.7,42.9,193.9,42.9z"/>
		<path fill="#515155" stroke="#515155" stroke-width="0.134" stroke-miterlimit="10" d="M96.3,7.9v0.9h-2.5v6.4h-1V8.8h-2.5V7.9
			H96.3z"/>
		<path fill="#515155" stroke="#515155" stroke-width="0.134" stroke-miterlimit="10" d="M100.2,9.7c0.6,0,1,0.2,1.4,0.6
			c0.3,0.4,0.5,0.9,0.5,1.5v3.4h-1v-3.3c0-0.9-0.4-1.3-1.2-1.3c-0.6,0-1.2,0.3-1.7,1v3.6h-1V7.5h1v3.1h0
			C98.9,10.1,99.5,9.7,100.2,9.7z"/>
		<path fill="#515155" stroke="#515155" stroke-width="0.134" stroke-miterlimit="10" d="M108.4,12.5v0.3h-4.1
			c0.1,0.5,0.2,0.9,0.5,1.1c0.3,0.3,0.8,0.4,1.4,0.4c0.6,0,1.2-0.2,1.7-0.5h0.1v0.9c-0.6,0.3-1.3,0.5-2.1,0.5
			c-0.8,0-1.4-0.2-1.9-0.7c-0.5-0.5-0.7-1.1-0.7-2c0-0.8,0.2-1.5,0.6-2.1c0.4-0.5,1-0.8,1.9-0.8c0.8,0,1.4,0.3,1.9,0.8
			C108.2,11.1,108.4,11.7,108.4,12.5z M104.4,12.1h3.1c0-0.5-0.2-0.9-0.5-1.1c-0.3-0.3-0.7-0.4-1-0.4c-0.4,0-0.7,0.1-1,0.4
			C104.6,11.2,104.4,11.6,104.4,12.1z"/>
		<circle fill="#55BF98" cx="91.1" cy="46" r="1.5"/>
		<circle fill="#55BF98" cx="206.2" cy="46" r="1.5"/>
		<circle fill="#32C0CF" cx="83.1" cy="46" r="1.5"/>
		<circle fill="#32C0CF" cx="214.2" cy="46" r="1.5"/>
		<circle fill="#0090BE" cx="75.2" cy="46" r="1.5"/>
		<circle fill="#0090BE" cx="222.1" cy="46" r="1.5"/>
	</g>
</g>
</svg>
